REM DIRINDEX 1\6,1\2\7,1\2\8,1\2\9,1\3\10,1\3\11,1\4\12,1\4\13,1\4\14,1\5\15,1\5\16,1\5\17
REM DIRNAME folder01,folder02,folder03,folder04,folder05,folder06,folder07,folder08,folder09,folder10,folder11,folder12,folder13,folder14,folder15,folder16,folder17
TITLE ""
FILE "P2Q_t_0825-0839.mp3" MP3
  TRACK 01 AUDIO
    TITLE "10:cjc040_3304"
    INDEX 01 00:00:00
  TRACK 02 AUDIO
    TITLE "0:"
    INDEX 01 00:01:11
  TRACK 03 AUDIO
    TITLE "11:cjc040_3305"
    INDEX 01 00:01:66
  TRACK 04 AUDIO
    TITLE "0:"
    INDEX 01 00:04:48
  TRACK 05 AUDIO
    TITLE "10:cjc040_3306"
    INDEX 01 00:05:22
  TRACK 06 AUDIO
    TITLE "0:"
    INDEX 01 00:06:26
  TRACK 07 AUDIO
    TITLE "11:cjc040_3307"
    INDEX 01 00:07:05
  TRACK 08 AUDIO
    TITLE "0:"
    INDEX 01 00:09:59
  TRACK 09 AUDIO
    TITLE "10:cjc040_3308"
    INDEX 01 00:10:35
  TRACK 10 AUDIO
    TITLE "0:"
    INDEX 01 00:11:60
  TRACK 11 AUDIO
    TITLE "11:cjc040_3309"
    INDEX 01 00:12:38
  TRACK 12 AUDIO
    TITLE "0:"
    INDEX 01 00:15:72
  TRACK 13 AUDIO
    TITLE "10:cjc040_3310"
    INDEX 01 00:16:51
  TRACK 14 AUDIO
    TITLE "0:"
    INDEX 01 00:17:69
  TRACK 15 AUDIO
    TITLE "11:cjc040_3311"
    INDEX 01 00:18:46
  TRACK 16 AUDIO
    TITLE "0:"
    INDEX 01 00:22:27
  TRACK 17 AUDIO
    TITLE "10:cjc040_3312"
    INDEX 01 00:23:04
  TRACK 18 AUDIO
    TITLE "0:"
    INDEX 01 00:24:12
  TRACK 19 AUDIO
    TITLE "11:cjc040_3313"
    INDEX 01 00:24:67
  TRACK 20 AUDIO
    TITLE "0:"
    INDEX 01 00:26:32
  TRACK 21 AUDIO
    TITLE "10:cjc040_3314"
    INDEX 01 00:27:12
  TRACK 22 AUDIO
    TITLE "0:"
    INDEX 01 00:28:35
  TRACK 23 AUDIO
    TITLE "11:cjc040_3315"
    INDEX 01 00:29:13
  TRACK 24 AUDIO
    TITLE "0:"
    INDEX 01 00:30:55
  TRACK 25 AUDIO
    TITLE "10:cjc040_3316"
    INDEX 01 00:31:33
  TRACK 26 AUDIO
    TITLE "0:"
    INDEX 01 00:32:41
  TRACK 27 AUDIO
    TITLE "11:cjc040_3317"
    INDEX 01 00:33:19
  TRACK 28 AUDIO
    TITLE "0:"
    INDEX 01 00:36:21
  TRACK 29 AUDIO
    TITLE "10:cjc040_3318"
    INDEX 01 00:37:05
  TRACK 30 AUDIO
    TITLE "0:"
    INDEX 01 00:38:24
  TRACK 31 AUDIO
    TITLE "11:cjc040_3319"
    INDEX 01 00:39:05
  TRACK 32 AUDIO
    TITLE "0:"
    INDEX 01 00:42:12
  TRACK 33 AUDIO
    TITLE "10:cjc040_3320"
    INDEX 01 00:42:68
  TRACK 34 AUDIO
    TITLE "0:"
    INDEX 01 00:44:09
  TRACK 35 AUDIO
    TITLE "11:cjc040_3321"
    INDEX 01 00:44:61
  TRACK 36 AUDIO
    TITLE "0:"
    INDEX 01 00:49:33
  TRACK 37 AUDIO
    TITLE "10:cjc040_3322"
    INDEX 01 00:50:11
  TRACK 38 AUDIO
    TITLE "0:"
    INDEX 01 00:51:28
  TRACK 39 AUDIO
    TITLE "11:cjc040_3323"
    INDEX 01 00:52:08
  TRACK 40 AUDIO
    TITLE "0:"
    INDEX 01 00:54:60
  TRACK 41 AUDIO
    TITLE "10:cjc040_3324"
    INDEX 01 00:55:38
  TRACK 42 AUDIO
    TITLE "0:"
    INDEX 01 00:56:51
  TRACK 43 AUDIO
    TITLE "11:cjc040_3325"
    INDEX 01 00:57:29
  TRACK 44 AUDIO
    TITLE "0:"
    INDEX 01 00:58:42
  TRACK 45 AUDIO
    TITLE "10:cjc040_3326"
    INDEX 01 00:59:20
  TRACK 46 AUDIO
    TITLE "0:"
    INDEX 01 01:00:35
  TRACK 47 AUDIO
    TITLE "11:cjc040_3327"
    INDEX 01 01:01:17
  TRACK 48 AUDIO
    TITLE "0:"
    INDEX 01 01:03:45
  TRACK 49 AUDIO
    TITLE "10:cjc040_3328"
    INDEX 01 01:04:19
  TRACK 50 AUDIO
    TITLE "0:"
    INDEX 01 01:05:28
  TRACK 51 AUDIO
    TITLE "11:cjc040_3329"
    INDEX 01 01:06:06
  TRACK 52 AUDIO
    TITLE "0:"
    INDEX 01 01:09:26
  TRACK 53 AUDIO
    TITLE "10:cjc040_3330"
    INDEX 01 01:10:02
  TRACK 54 AUDIO
    TITLE "0:"
    INDEX 01 01:11:19
  TRACK 55 AUDIO
    TITLE "11:cjc040_3331"
    INDEX 01 01:11:74
  TRACK 56 AUDIO
    TITLE "0:"
    INDEX 01 01:14:21
  TRACK 57 AUDIO
    TITLE "10:cjc040_3332"
    INDEX 01 01:14:70
  TRACK 58 AUDIO
    TITLE "0:"
    INDEX 01 01:15:62
  TRACK 59 AUDIO
    TITLE "11:cjc040_3333"
    INDEX 01 01:16:48
  TRACK 60 AUDIO
    TITLE "0:"
    INDEX 01 01:19:27
